<svg width="74" height="50" viewBox="0 0 74 50" fill="none" xmlns="http://www.w3.org/2000/svg">
<path d="M49.0903 25.157C47.1615 25.157 45.3468 24.172 44.3653 22.596L37.0267 10.9293L29.6995 22.596C28.7065 24.183 26.8919 25.168 24.963 25.168C24.4495 25.168 23.9359 25.1023 23.4451 24.96L7.8092 20.6698V40.1509C7.8092 41.7598 8.95051 43.1606 10.5712 43.5437L35.2462 49.4646C36.4104 49.7383 37.6316 49.7383 38.7843 49.4646L63.4822 43.5437C65.1028 43.1497 66.2441 41.7488 66.2441 40.1509V20.6698L50.6082 24.9491C50.1175 25.0914 49.6039 25.157 49.0903 25.157ZM73.3545 12.8774L67.4767 1.6265C67.1229 0.947941 66.3583 0.553941 65.5708 0.652441L37.0267 4.14372L47.4925 20.7902C47.9262 21.4797 48.7935 21.808 49.6039 21.5892L72.1903 15.4055C73.3202 15.0882 73.8681 13.8843 73.3545 12.8774ZM6.57659 1.6265L0.698853 12.8774C0.173852 13.8843 0.733092 15.0882 1.85157 15.3946L24.438 21.5782C25.2484 21.7971 26.1158 21.4688 26.5495 20.7793L37.0267 4.14372L8.47116 0.652441C7.68365 0.564885 6.93039 0.947941 6.57659 1.6265Z" fill="#EAB1B1"/>
</svg>
